<svg width="125" height="14" viewBox="0 0 125 14" fill="none" xmlns="http://www.w3.org/2000/svg">
<path d="M5.408 13.192C4.65067 13.192 3.94667 13.0533 3.296 12.776C2.656 12.4987 2.10133 12.1147 1.632 11.624C1.17333 11.1227 0.837333 10.5413 0.624 9.88L2.432 9.096C2.72 9.77867 3.136 10.3173 3.68 10.712C4.224 11.096 4.83733 11.288 5.52 11.288C5.904 11.288 6.23467 11.2293 6.512 11.112C6.8 10.984 7.01867 10.8133 7.168 10.6C7.328 10.3867 7.408 10.1307 7.408 9.832C7.408 9.48 7.30133 9.192 7.088 8.968C6.88533 8.73333 6.576 8.552 6.16 8.424L3.872 7.688C2.944 7.4 2.24533 6.968 1.776 6.392C1.30667 5.816 1.072 5.13867 1.072 4.36C1.072 3.67733 1.23733 3.07467 1.568 2.552C1.90933 2.02933 2.37867 1.624 2.976 1.336C3.584 1.03733 4.27733 0.888 5.056 0.888C5.77067 0.888 6.42667 1.016 7.024 1.272C7.62133 1.51733 8.13333 1.864 8.56 2.312C8.99733 2.74933 9.32267 3.26667 9.536 3.864L7.744 4.664C7.50933 4.06667 7.15733 3.608 6.688 3.288C6.21867 2.95733 5.67467 2.792 5.056 2.792C4.69333 2.792 4.37333 2.856 4.096 2.984C3.81867 3.10133 3.6 3.272 3.44 3.496C3.29067 3.70933 3.216 3.96533 3.216 4.264C3.216 4.59467 3.32267 4.888 3.536 5.144C3.74933 5.38933 4.07467 5.58133 4.512 5.72L6.704 6.408C7.65333 6.71733 8.36267 7.144 8.832 7.688C9.312 8.232 9.552 8.904 9.552 9.704C9.552 10.3867 9.376 10.9893 9.024 11.512C8.672 12.0347 8.18667 12.4453 7.568 12.744C6.94933 13.0427 6.22933 13.192 5.408 13.192ZM14.5114 13V1.08H16.5914L21.0554 7.144H20.0634L24.4314 1.08H26.5114V13H24.3194V3.56L25.1674 3.768L20.6394 9.8H20.3834L15.9674 3.768L16.6874 3.56V13H14.5114ZM30.8166 13L34.9286 1.08H37.7446L41.8566 13H39.4886L38.6406 10.44H34.0326L33.1686 13H30.8166ZM34.6566 8.52H38.0166L36.0326 2.584H36.6406L34.6566 8.52ZM46.1833 13V1.08H50.6153C51.4259 1.08 52.1406 1.22933 52.7593 1.528C53.3886 1.816 53.8793 2.24267 54.2313 2.808C54.5833 3.36267 54.7593 4.04 54.7593 4.84C54.7593 5.66133 54.5619 6.36 54.1673 6.936C53.7833 7.512 53.2606 7.93867 52.5993 8.216L55.3353 13H52.8713L49.9433 7.768L51.3513 8.6H48.3593V13H46.1833ZM48.3593 6.68H50.6473C51.0419 6.68 51.3833 6.60533 51.6713 6.456C51.9593 6.296 52.1833 6.07733 52.3433 5.8C52.5033 5.52267 52.5833 5.20267 52.5833 4.84C52.5833 4.46667 52.5033 4.14667 52.3433 3.88C52.1833 3.60267 51.9593 3.38933 51.6713 3.24C51.3833 3.08 51.0419 3 50.6473 3H48.3593V6.68Z" fill="black"/>
<path d="M61.8734 13V3H58.7854V1.08H67.1054V3H64.0654V13H61.8734ZM76.8209 13.192C75.9462 13.192 75.1302 13.0373 74.3729 12.728C73.6155 12.4187 72.9542 11.9867 72.3889 11.432C71.8235 10.8773 71.3809 10.2267 71.0609 9.48C70.7515 8.72267 70.5969 7.90667 70.5969 7.032C70.5969 6.14667 70.7515 5.33067 71.0609 4.584C71.3702 3.83733 71.8075 3.18667 72.3729 2.632C72.9382 2.07733 73.5995 1.65067 74.3569 1.352C75.1142 1.04267 75.9355 0.888 76.8209 0.888C77.7062 0.888 78.5275 1.04267 79.2849 1.352C80.0422 1.66133 80.7035 2.09333 81.2689 2.648C81.8342 3.192 82.2715 3.83733 82.5809 4.584C82.9009 5.33067 83.0609 6.14667 83.0609 7.032C83.0609 7.90667 82.9009 8.72267 82.5809 9.48C82.2609 10.2267 81.8182 10.8773 81.2529 11.432C80.6875 11.9867 80.0262 12.4187 79.2689 12.728C78.5222 13.0373 77.7062 13.192 76.8209 13.192ZM76.8209 11.208C77.4075 11.208 77.9462 11.1067 78.4369 10.904C78.9275 10.6907 79.3542 10.3973 79.7169 10.024C80.0902 9.65067 80.3729 9.208 80.5649 8.696C80.7675 8.184 80.8689 7.62933 80.8689 7.032C80.8689 6.43467 80.7675 5.88533 80.5649 5.384C80.3729 4.872 80.0902 4.42933 79.7169 4.056C79.3542 3.672 78.9275 3.37867 78.4369 3.176C77.9462 2.97333 77.4075 2.872 76.8209 2.872C76.2449 2.872 75.7115 2.97333 75.2209 3.176C74.7302 3.37867 74.2982 3.672 73.9249 4.056C73.5622 4.42933 73.2795 4.872 73.0769 5.384C72.8742 5.88533 72.7729 6.43467 72.7729 7.032C72.7729 7.62933 72.8742 8.184 73.0769 8.696C73.2795 9.208 73.5622 9.65067 73.9249 10.024C74.2982 10.3973 74.7302 10.6907 75.2209 10.904C75.7115 11.1067 76.2449 11.208 76.8209 11.208ZM92.5878 13.192C91.6704 13.192 90.8544 13 90.1398 12.616C89.4358 12.232 88.8811 11.704 88.4758 11.032C88.0704 10.36 87.8678 9.59733 87.8678 8.744V1.08H90.0438V8.632C90.0438 9.12267 90.1504 9.56533 90.3638 9.96C90.5878 10.3547 90.8918 10.664 91.2758 10.888C91.6598 11.1013 92.0971 11.208 92.5878 11.208C93.0891 11.208 93.5264 11.1013 93.8998 10.888C94.2838 10.664 94.5824 10.3547 94.7958 9.96C95.0198 9.56533 95.1318 9.12267 95.1318 8.632V1.08H97.3078V8.744C97.3078 9.59733 97.1051 10.36 96.6998 11.032C96.2944 11.704 95.7344 12.232 95.0198 12.616C94.3158 13 93.5051 13.192 92.5878 13.192ZM102.48 13V1.08H106.912C107.723 1.08 108.437 1.22933 109.056 1.528C109.685 1.816 110.176 2.24267 110.528 2.808C110.88 3.36267 111.056 4.04 111.056 4.84C111.056 5.66133 110.859 6.36 110.464 6.936C110.08 7.512 109.557 7.93867 108.896 8.216L111.632 13H109.168L106.24 7.768L107.648 8.6H104.656V13H102.48ZM104.656 6.68H106.944C107.339 6.68 107.68 6.60533 107.968 6.456C108.256 6.296 108.48 6.07733 108.64 5.8C108.8 5.52267 108.88 5.20267 108.88 4.84C108.88 4.46667 108.8 4.14667 108.64 3.88C108.48 3.60267 108.256 3.38933 107.968 3.24C107.68 3.08 107.339 3 106.944 3H104.656V6.68ZM120.314 13.192C119.557 13.192 118.853 13.0533 118.202 12.776C117.562 12.4987 117.008 12.1147 116.538 11.624C116.08 11.1227 115.744 10.5413 115.53 9.88L117.338 9.096C117.626 9.77867 118.042 10.3173 118.586 10.712C119.13 11.096 119.744 11.288 120.426 11.288C120.81 11.288 121.141 11.2293 121.418 11.112C121.706 10.984 121.925 10.8133 122.074 10.6C122.234 10.3867 122.314 10.1307 122.314 9.832C122.314 9.48 122.208 9.192 121.994 8.968C121.792 8.73333 121.482 8.552 121.066 8.424L118.778 7.688C117.85 7.4 117.152 6.968 116.682 6.392C116.213 5.816 115.978 5.13867 115.978 4.36C115.978 3.67733 116.144 3.07467 116.474 2.552C116.816 2.02933 117.285 1.624 117.882 1.336C118.49 1.03733 119.184 0.888 119.962 0.888C120.677 0.888 121.333 1.016 121.93 1.272C122.528 1.51733 123.04 1.864 123.466 2.312C123.904 2.74933 124.229 3.26667 124.442 3.864L122.65 4.664C122.416 4.06667 122.064 3.608 121.594 3.288C121.125 2.95733 120.581 2.792 119.962 2.792C119.6 2.792 119.28 2.856 119.002 2.984C118.725 3.10133 118.506 3.272 118.346 3.496C118.197 3.70933 118.122 3.96533 118.122 4.264C118.122 4.59467 118.229 4.888 118.442 5.144C118.656 5.38933 118.981 5.58133 119.418 5.72L121.61 6.408C122.56 6.71733 123.269 7.144 123.738 7.688C124.218 8.232 124.458 8.904 124.458 9.704C124.458 10.3867 124.282 10.9893 123.93 11.512C123.578 12.0347 123.093 12.4453 122.474 12.744C121.856 13.0427 121.136 13.192 120.314 13.192Z" fill="url(#paint0_linear_7_481)"/>
<defs>
<linearGradient id="paint0_linear_7_481" x1="10.2056" y1="-9" x2="112.584" y2="25.8227" gradientUnits="userSpaceOnUse">
<stop stop-color="#D9B227"/>
<stop offset="1" stop-color="#FD4141"/>
</linearGradient>
</defs>
</svg>
